<svg xmlns="http://www.w3.org/2000/svg" xmlns:xlink="http://www.w3.org/1999/xlink" width="500" zoomAndPan="magnify" viewBox="0 0 375 374.999991" height="500" preserveAspectRatio="xMidYMid meet" version="1.0"><defs><g/><clipPath id="45baf2f8bd"><path d="M 37.5 84.65625 L 337.5 84.65625 L 337.5 206.90625 L 37.5 206.90625 Z M 37.5 84.65625 " clip-rule="nonzero"/></clipPath><clipPath id="61278799b9"><path d="M 236.675781 124.105469 L 220.28125 139.195312 L 284.125 197 L 275.144531 206.925781 L 210.394531 148.292969 L 189.773438 167.273438 L 222.609375 197.003906 L 213.632812 206.925781 L 166.390625 164.152344 L 119.945312 206.890625 L 110.890625 197.039062 L 166.316406 146.035156 L 179.8125 158.253906 L 200.4375 139.273438 L 160.128906 102.773438 L 46.988281 206.890625 L 37.933594 197.039062 L 160.054688 84.65625 L 210.324219 130.175781 L 236.605469 105.988281 L 337.089844 196.988281 L 328.113281 206.910156 Z M 236.675781 124.105469 " clip-rule="nonzero"/></clipPath><linearGradient x1="0.00000191449" gradientTransform="matrix(0.678776, 0, 0, 0.679167, 37.931698, 84.655728)" y1="90.014" x2="440.73098" gradientUnits="userSpaceOnUse" y2="90.014" id="150c95af26"><stop stop-opacity="1" stop-color="rgb(90.59906%, 83.099365%, 61.999512%)" offset="0"/><stop stop-opacity="1" stop-color="rgb(90.576172%, 83.041382%, 61.90033%)" offset="0.0078125"/><stop stop-opacity="1" stop-color="rgb(90.530396%, 82.923889%, 61.705017%)" offset="0.015625"/><stop stop-opacity="1" stop-color="rgb(90.483093%, 82.807922%, 61.508179%)" offset="0.0234375"/><stop stop-opacity="1" stop-color="rgb(90.437317%, 82.691956%, 61.312866%)" offset="0.03125"/><stop stop-opacity="1" stop-color="rgb(90.391541%, 82.574463%, 61.116028%)" offset="0.0390625"/><stop stop-opacity="1" stop-color="rgb(90.345764%, 82.458496%, 60.920715%)" offset="0.046875"/><stop stop-opacity="1" stop-color="rgb(90.299988%, 82.342529%, 60.723877%)" offset="0.0546875"/><stop stop-opacity="1" stop-color="rgb(90.252686%, 82.226562%, 60.528564%)" offset="0.0625"/><stop stop-opacity="1" stop-color="rgb(90.206909%, 82.10907%, 60.331726%)" offset="0.0703125"/><stop stop-opacity="1" stop-color="rgb(90.161133%, 81.993103%, 60.136414%)" offset="0.078125"/><stop stop-opacity="1" stop-color="rgb(90.115356%, 81.877136%, 59.939575%)" offset="0.0859375"/><stop stop-opacity="1" stop-color="rgb(90.06958%, 81.759644%, 59.744263%)" offset="0.09375"/><stop stop-opacity="1" stop-color="rgb(90.022278%, 81.643677%, 59.547424%)" offset="0.101562"/><stop stop-opacity="1" stop-color="rgb(89.976501%, 81.52771%, 59.352112%)" offset="0.109375"/><stop stop-opacity="1" stop-color="rgb(89.930725%, 81.411743%, 59.155273%)" offset="0.117187"/><stop stop-opacity="1" stop-color="rgb(89.884949%, 81.29425%, 58.959961%)" offset="0.125"/><stop stop-opacity="1" stop-color="rgb(89.839172%, 81.178284%, 58.763123%)" offset="0.132812"/><stop stop-opacity="1" stop-color="rgb(89.79187%, 81.062317%, 58.56781%)" offset="0.140625"/><stop stop-opacity="1" stop-color="rgb(89.746094%, 80.944824%, 58.370972%)" offset="0.148438"/><stop stop-opacity="1" stop-color="rgb(89.700317%, 80.828857%, 58.175659%)" offset="0.15625"/><stop stop-opacity="1" stop-color="rgb(89.654541%, 80.712891%, 57.978821%)" offset="0.164062"/><stop stop-opacity="1" stop-color="rgb(89.608765%, 80.596924%, 57.783508%)" offset="0.171875"/><stop stop-opacity="1" stop-color="rgb(89.561462%, 80.479431%, 57.58667%)" offset="0.179688"/><stop stop-opacity="1" stop-color="rgb(89.515686%, 80.363464%, 57.391357%)" offset="0.1875"/><stop stop-opacity="1" stop-color="rgb(89.46991%, 80.247498%, 57.194519%)" offset="0.195312"/><stop stop-opacity="1" stop-color="rgb(89.424133%, 80.130005%, 56.999207%)" offset="0.203125"/><stop stop-opacity="1" stop-color="rgb(89.378357%, 80.014038%, 56.802368%)" offset="0.210938"/><stop stop-opacity="1" stop-color="rgb(89.331055%, 79.898071%, 56.60553%)" offset="0.21875"/><stop stop-opacity="1" stop-color="rgb(89.285278%, 79.782104%, 56.410217%)" offset="0.226562"/><stop stop-opacity="1" stop-color="rgb(89.239502%, 79.664612%, 56.213379%)" offset="0.234375"/><stop stop-opacity="1" stop-color="rgb(89.193726%, 79.548645%, 56.018066%)" offset="0.242188"/><stop stop-opacity="1" stop-color="rgb(89.146423%, 79.432678%, 55.821228%)" offset="0.25"/><stop stop-opacity="1" stop-color="rgb(89.100647%, 79.315186%, 55.625916%)" offset="0.257812"/><stop stop-opacity="1" stop-color="rgb(89.054871%, 79.199219%, 55.429077%)" offset="0.265625"/><stop stop-opacity="1" stop-color="rgb(89.009094%, 79.083252%, 55.233765%)" offset="0.273437"/><stop stop-opacity="1" stop-color="rgb(88.963318%, 78.967285%, 55.036926%)" offset="0.28125"/><stop stop-opacity="1" stop-color="rgb(88.916016%, 78.849792%, 54.841614%)" offset="0.289062"/><stop stop-opacity="1" stop-color="rgb(88.870239%, 78.733826%, 54.644775%)" offset="0.296875"/><stop stop-opacity="1" stop-color="rgb(88.824463%, 78.617859%, 54.449463%)" offset="0.304687"/><stop stop-opacity="1" stop-color="rgb(88.778687%, 78.500366%, 54.252625%)" offset="0.3125"/><stop stop-opacity="1" stop-color="rgb(88.73291%, 78.384399%, 54.057312%)" offset="0.320312"/><stop stop-opacity="1" stop-color="rgb(88.685608%, 78.268433%, 53.860474%)" offset="0.328125"/><stop stop-opacity="1" stop-color="rgb(88.639832%, 78.152466%, 53.665161%)" offset="0.335937"/><stop stop-opacity="1" stop-color="rgb(88.594055%, 78.034973%, 53.468323%)" offset="0.34375"/><stop stop-opacity="1" stop-color="rgb(88.548279%, 77.919006%, 53.27301%)" offset="0.351562"/><stop stop-opacity="1" stop-color="rgb(88.502502%, 77.80304%, 53.076172%)" offset="0.359375"/><stop stop-opacity="1" stop-color="rgb(88.4552%, 77.685547%, 52.880859%)" offset="0.367187"/><stop stop-opacity="1" stop-color="rgb(88.409424%, 77.56958%, 52.684021%)" offset="0.375"/><stop stop-opacity="1" stop-color="rgb(88.363647%, 77.453613%, 52.488708%)" offset="0.382812"/><stop stop-opacity="1" stop-color="rgb(88.317871%, 77.337646%, 52.29187%)" offset="0.390625"/><stop stop-opacity="1" stop-color="rgb(88.272095%, 77.220154%, 52.096558%)" offset="0.398437"/><stop stop-opacity="1" stop-color="rgb(88.224792%, 77.104187%, 51.899719%)" offset="0.40625"/><stop stop-opacity="1" stop-color="rgb(88.179016%, 76.98822%, 51.704407%)" offset="0.414062"/><stop stop-opacity="1" stop-color="rgb(88.13324%, 76.870728%, 51.507568%)" offset="0.421875"/><stop stop-opacity="1" stop-color="rgb(88.087463%, 76.754761%, 51.312256%)" offset="0.429687"/><stop stop-opacity="1" stop-color="rgb(88.040161%, 76.638794%, 51.115417%)" offset="0.4375"/><stop stop-opacity="1" stop-color="rgb(87.994385%, 76.522827%, 50.920105%)" offset="0.445312"/><stop stop-opacity="1" stop-color="rgb(87.948608%, 76.405334%, 50.723267%)" offset="0.453125"/><stop stop-opacity="1" stop-color="rgb(87.902832%, 76.289368%, 50.527954%)" offset="0.460937"/><stop stop-opacity="1" stop-color="rgb(87.857056%, 76.173401%, 50.331116%)" offset="0.46875"/><stop stop-opacity="1" stop-color="rgb(87.809753%, 76.055908%, 50.135803%)" offset="0.476562"/><stop stop-opacity="1" stop-color="rgb(87.763977%, 75.939941%, 49.938965%)" offset="0.484375"/><stop stop-opacity="1" stop-color="rgb(87.718201%, 75.823975%, 49.743652%)" offset="0.492187"/><stop stop-opacity="1" stop-color="rgb(87.672424%, 75.706482%, 49.546814%)" offset="0.5"/><stop stop-opacity="1" stop-color="rgb(87.626648%, 75.590515%, 49.351501%)" offset="0.507812"/><stop stop-opacity="1" stop-color="rgb(87.579346%, 75.474548%, 49.154663%)" offset="0.515625"/><stop stop-opacity="1" stop-color="rgb(87.533569%, 75.358582%, 48.959351%)" offset="0.523438"/><stop stop-opacity="1" stop-color="rgb(87.487793%, 75.241089%, 48.762512%)" offset="0.53125"/><stop stop-opacity="1" stop-color="rgb(87.442017%, 75.125122%, 48.565674%)" offset="0.539062"/><stop stop-opacity="1" stop-color="rgb(87.39624%, 75.009155%, 48.370361%)" offset="0.546875"/><stop stop-opacity="1" stop-color="rgb(87.348938%, 74.891663%, 48.173523%)" offset="0.554687"/><stop stop-opacity="1" stop-color="rgb(87.303162%, 74.775696%, 47.97821%)" offset="0.5625"/><stop stop-opacity="1" stop-color="rgb(87.257385%, 74.659729%, 47.781372%)" offset="0.570312"/><stop stop-opacity="1" stop-color="rgb(87.211609%, 74.543762%, 47.58606%)" offset="0.578125"/><stop stop-opacity="1" stop-color="rgb(87.165833%, 74.42627%, 47.389221%)" offset="0.585937"/><stop stop-opacity="1" stop-color="rgb(87.11853%, 74.310303%, 47.193909%)" offset="0.59375"/><stop stop-opacity="1" stop-color="rgb(87.072754%, 74.194336%, 46.99707%)" offset="0.601562"/><stop stop-opacity="1" stop-color="rgb(87.026978%, 74.076843%, 46.801758%)" offset="0.609375"/><stop stop-opacity="1" stop-color="rgb(86.981201%, 73.960876%, 46.604919%)" offset="0.617187"/><stop stop-opacity="1" stop-color="rgb(86.933899%, 73.84491%, 46.409607%)" offset="0.625"/><stop stop-opacity="1" stop-color="rgb(86.888123%, 73.728943%, 46.212769%)" offset="0.632813"/><stop stop-opacity="1" stop-color="rgb(86.842346%, 73.61145%, 46.017456%)" offset="0.640625"/><stop stop-opacity="1" stop-color="rgb(86.79657%, 73.495483%, 45.820618%)" offset="0.648438"/><stop stop-opacity="1" stop-color="rgb(86.750793%, 73.379517%, 45.625305%)" offset="0.65625"/><stop stop-opacity="1" stop-color="rgb(86.703491%, 73.262024%, 45.428467%)" offset="0.664063"/><stop stop-opacity="1" stop-color="rgb(86.657715%, 73.146057%, 45.233154%)" offset="0.671875"/><stop stop-opacity="1" stop-color="rgb(86.611938%, 73.03009%, 45.036316%)" offset="0.679688"/><stop stop-opacity="1" stop-color="rgb(86.566162%, 72.914124%, 44.841003%)" offset="0.6875"/><stop stop-opacity="1" stop-color="rgb(86.520386%, 72.796631%, 44.644165%)" offset="0.695313"/><stop stop-opacity="1" stop-color="rgb(86.473083%, 72.680664%, 44.448853%)" offset="0.703125"/><stop stop-opacity="1" stop-color="rgb(86.427307%, 72.564697%, 44.252014%)" offset="0.710938"/><stop stop-opacity="1" stop-color="rgb(86.381531%, 72.447205%, 44.056702%)" offset="0.71875"/><stop stop-opacity="1" stop-color="rgb(86.335754%, 72.331238%, 43.859863%)" offset="0.726562"/><stop stop-opacity="1" stop-color="rgb(86.289978%, 72.215271%, 43.664551%)" offset="0.734375"/><stop stop-opacity="1" stop-color="rgb(86.242676%, 72.099304%, 43.467712%)" offset="0.742188"/><stop stop-opacity="1" stop-color="rgb(86.196899%, 71.981812%, 43.2724%)" offset="0.75"/><stop stop-opacity="1" stop-color="rgb(86.151123%, 71.865845%, 43.075562%)" offset="0.757812"/><stop stop-opacity="1" stop-color="rgb(86.105347%, 71.749878%, 42.880249%)" offset="0.765625"/><stop stop-opacity="1" stop-color="rgb(86.05957%, 71.632385%, 42.683411%)" offset="0.773438"/><stop stop-opacity="1" stop-color="rgb(86.012268%, 71.516418%, 42.488098%)" offset="0.78125"/><stop stop-opacity="1" stop-color="rgb(85.966492%, 71.400452%, 42.29126%)" offset="0.789062"/><stop stop-opacity="1" stop-color="rgb(85.920715%, 71.284485%, 42.095947%)" offset="0.796875"/><stop stop-opacity="1" stop-color="rgb(85.874939%, 71.166992%, 41.899109%)" offset="0.804687"/><stop stop-opacity="1" stop-color="rgb(85.827637%, 71.051025%, 41.703796%)" offset="0.8125"/><stop stop-opacity="1" stop-color="rgb(85.78186%, 70.935059%, 41.506958%)" offset="0.820312"/><stop stop-opacity="1" stop-color="rgb(85.736084%, 70.817566%, 41.311646%)" offset="0.828125"/><stop stop-opacity="1" stop-color="rgb(85.690308%, 70.701599%, 41.114807%)" offset="0.835937"/><stop stop-opacity="1" stop-color="rgb(85.644531%, 70.585632%, 40.919495%)" offset="0.84375"/><stop stop-opacity="1" stop-color="rgb(85.597229%, 70.469666%, 40.722656%)" offset="0.851562"/><stop stop-opacity="1" stop-color="rgb(85.551453%, 70.352173%, 40.527344%)" offset="0.859375"/><stop stop-opacity="1" stop-color="rgb(85.505676%, 70.236206%, 40.330505%)" offset="0.867187"/><stop stop-opacity="1" stop-color="rgb(85.4599%, 70.120239%, 40.133667%)" offset="0.875"/><stop stop-opacity="1" stop-color="rgb(85.414124%, 70.002747%, 39.938354%)" offset="0.882813"/><stop stop-opacity="1" stop-color="rgb(85.366821%, 69.88678%, 39.741516%)" offset="0.890625"/><stop stop-opacity="1" stop-color="rgb(85.321045%, 69.770813%, 39.546204%)" offset="0.898438"/><stop stop-opacity="1" stop-color="rgb(85.275269%, 69.654846%, 39.349365%)" offset="0.90625"/><stop stop-opacity="1" stop-color="rgb(85.229492%, 69.537354%, 39.154053%)" offset="0.914063"/><stop stop-opacity="1" stop-color="rgb(85.183716%, 69.421387%, 38.957214%)" offset="0.921875"/><stop stop-opacity="1" stop-color="rgb(85.136414%, 69.30542%, 38.761902%)" offset="0.929688"/><stop stop-opacity="1" stop-color="rgb(85.090637%, 69.187927%, 38.565063%)" offset="0.9375"/><stop stop-opacity="1" stop-color="rgb(85.044861%, 69.07196%, 38.369751%)" offset="0.945313"/><stop stop-opacity="1" stop-color="rgb(84.999084%, 68.955994%, 38.172913%)" offset="0.953125"/><stop stop-opacity="1" stop-color="rgb(84.953308%, 68.838501%, 37.9776%)" offset="0.960938"/><stop stop-opacity="1" stop-color="rgb(84.906006%, 68.722534%, 37.780762%)" offset="0.96875"/><stop stop-opacity="1" stop-color="rgb(84.860229%, 68.606567%, 37.585449%)" offset="0.976562"/><stop stop-opacity="1" stop-color="rgb(84.814453%, 68.490601%, 37.388611%)" offset="0.984375"/><stop stop-opacity="1" stop-color="rgb(84.768677%, 68.373108%, 37.193298%)" offset="0.992188"/><stop stop-opacity="1" stop-color="rgb(84.721375%, 68.257141%, 36.99646%)" offset="1"/></linearGradient></defs><g clip-path="url(#45baf2f8bd)"><g clip-path="url(#61278799b9)"><path fill="url(#150c95af26)" d="M 37.933594 84.65625 L 37.933594 206.90625 L 337.089844 206.90625 L 337.089844 84.65625 Z M 37.933594 84.65625 " fill-rule="nonzero"/></g></g><g fill="#e7d49e" fill-opacity="1"><g transform="translate(111.014645, 261.090804)"><g><path d="M 20.394531 -1.417969 C 18.027344 -1.417969 17.082031 -2.792969 15.898438 -5.15625 C 14.859375 -7.191406 13.058594 -11.5 11.402344 -18.785156 L 11.214844 -18.785156 C 10.644531 -18.121094 10.078125 -17.648438 9.367188 -17.128906 C 11.449219 -11.214844 13.152344 -6.8125 15.234375 -3.027344 C 15.234375 -2.980469 15.285156 -2.933594 15.285156 -2.933594 C 12.964844 -2.035156 10.269531 -1.417969 7.523438 -1.417969 C 3.644531 -1.417969 1.988281 -2.648438 1.988281 -5.535156 C 1.988281 -6.199219 2.082031 -6.859375 2.222656 -7.664062 L 1.84375 -7.761719 C 1.515625 -6.386719 1.183594 -5.015625 1.183594 -3.785156 C 1.183594 -1.089844 3.074219 0.472656 6.625 0.472656 C 9.417969 0.472656 12.917969 -0.140625 16.039062 -1.84375 C 17.367188 -0.238281 19.023438 0.472656 20.394531 0.472656 C 20.679688 0.472656 20.773438 0.285156 20.773438 0.046875 L 20.773438 -1.039062 C 20.773438 -1.230469 20.726562 -1.417969 20.394531 -1.417969 Z M 20.394531 -1.417969 "/></g></g></g><g fill="#e7d49e" fill-opacity="1"><g transform="translate(131.310043, 261.090804)"><g><path d="M 20.0625 -6.199219 C 13.484375 -7.523438 12.300781 -14.527344 6.007812 -15.140625 C 4.210938 -13.484375 2.886719 -12.066406 0.851562 -9.9375 L 1.136719 -9.652344 C 3.546875 -12.066406 4.589844 -12.917969 6.007812 -12.917969 C 9.605469 -12.917969 11.5 -8.1875 16.277344 -5.488281 C 9.464844 -3.925781 9.464844 -1.417969 -0.046875 -1.417969 C -0.285156 -1.417969 -0.472656 -1.277344 -0.472656 -1.039062 L -0.472656 0.046875 C -0.472656 0.238281 -0.378906 0.472656 -0.046875 0.472656 C 9.273438 0.472656 7.710938 -3.121094 16.890625 -5.15625 C 17.507812 -4.828125 18.121094 -4.589844 18.832031 -4.351562 C 19.351562 -5.253906 19.496094 -5.488281 20.0625 -6.199219 Z M 20.0625 -6.199219 "/></g></g></g><g fill="#e7d49e" fill-opacity="1"><g transform="translate(152.315066, 261.090804)"><g><path d="M 5.015625 -34.824219 L 4.875 -34.824219 C 4.070312 -34.304688 3.40625 -33.925781 2.601562 -33.691406 C 3.359375 -22.949219 3.597656 -11.121094 3.738281 1.75 L 4.164062 1.75 C 4.164062 -2.601562 4.257812 -3.359375 5.015625 -4.683594 Z M 5.015625 -34.824219 "/></g></g></g><g fill="#e7d49e" fill-opacity="1"><g transform="translate(160.641386, 261.090804)"><g><path d="M 7.664062 -15.898438 C 8.515625 -17.128906 9.417969 -18.265625 10.171875 -19.164062 L 9.84375 -19.398438 C 5.347656 -13.628906 2.792969 -8.375 2.792969 -5.0625 C 2.792969 -1.84375 5.203125 0 8.234375 0 C 10.078125 0 12.066406 -0.613281 13.769531 -1.894531 L 13.769531 -1.371094 C 12.351562 5.582031 7.050781 8.753906 4.496094 8.753906 C 2.367188 8.753906 0.851562 7.902344 -1.941406 6.339844 L -2.128906 6.71875 L 5.203125 10.882812 C 10.078125 9.558594 14.714844 4.117188 14.714844 -3.265625 C 14.714844 -8.421875 11.828125 -12.917969 7.664062 -15.898438 Z M 8.941406 -1.894531 C 5.773438 -1.894531 3.691406 -3.878906 3.691406 -6.910156 C 3.691406 -8.800781 5.015625 -11.640625 6.671875 -14.289062 C 10.742188 -11.59375 13.203125 -7.617188 13.675781 -3.121094 C 11.734375 -2.175781 10.457031 -1.894531 8.941406 -1.894531 Z M 8.941406 -1.894531 "/></g></g></g><g fill="#e7d49e" fill-opacity="1"><g transform="translate(177.719803, 261.090804)"><g/></g></g><g fill="#e7d49e" fill-opacity="1"><g transform="translate(187.181526, 261.090804)"><g><path d="M 21.433594 -17.082031 C 17.367188 -17.082031 12.398438 -9.9375 12.398438 -6.246094 C 12.398438 -2.082031 19.542969 -1.039062 24.179688 -0.472656 C 22.382812 4.636719 16.515625 8.941406 10.410156 8.941406 C 5.820312 8.941406 3.265625 6.433594 3.265625 1.84375 C 3.265625 0.046875 3.691406 -2.222656 4.589844 -5.441406 L 4.210938 -5.582031 C 3.027344 -1.941406 2.601562 1.894531 2.601562 3.738281 C 2.601562 8.28125 5.253906 10.882812 9.9375 10.882812 C 16.84375 10.882812 24.984375 4.921875 24.984375 -0.1875 C 24.984375 -0.710938 24.367188 -2.082031 24.085938 -2.175781 C 19.824219 -3.21875 18.453125 -2.886719 13.203125 -5.628906 C 14.859375 -11.023438 18.878906 -15.140625 21.765625 -15.140625 C 23.136719 -15.140625 23.660156 -14.289062 23.660156 -11.875 C 23.660156 -11.355469 23.613281 -10.316406 23.5625 -9.605469 L 23.988281 -9.558594 C 24.085938 -11.074219 24.179688 -12.445312 24.179688 -13.582031 C 24.179688 -15.804688 23.1875 -17.082031 21.433594 -17.082031 Z M 11.828125 14.195312 L 11.6875 14.242188 C 11.167969 15.09375 10.742188 15.898438 10.21875 16.703125 C 11.121094 17.222656 11.78125 17.648438 12.824219 18.40625 C 13.582031 17.269531 14.101562 16.464844 14.101562 16.089844 C 14.101562 15.472656 13.582031 15.140625 11.828125 14.195312 Z M 17.792969 14.195312 L 17.648438 14.242188 C 17.128906 15.09375 16.703125 15.898438 16.183594 16.703125 C 17.082031 17.222656 17.742188 17.648438 18.785156 18.40625 C 19.542969 17.269531 20.0625 16.464844 20.0625 16.089844 C 20.0625 15.472656 19.542969 15.140625 17.792969 14.195312 Z M 17.792969 14.195312 "/></g></g></g><g fill="#e7d49e" fill-opacity="1"><g transform="translate(213.816274, 261.090804)"><g><path d="M -5.488281 6.53125 L -5.679688 6.910156 C -3.21875 8.328125 -1.941406 9.085938 1.277344 10.882812 C 6.152344 9.558594 10.078125 4.210938 10.078125 -1.65625 C 10.078125 -5.0625 7.996094 -9.792969 6.246094 -13.769531 L 6.054688 -13.769531 C 5.582031 -13.011719 5.109375 -12.492188 4.449219 -11.875 C 6.957031 -7.570312 7.949219 -5.441406 9.320312 -1.183594 C 7.996094 5.300781 3.121094 8.753906 0.566406 8.753906 C -1.46875 8.753906 -2.980469 7.949219 -5.488281 6.53125 Z M -5.488281 6.53125 "/></g></g></g><g fill="#e7d49e" fill-opacity="1"><g transform="translate(226.494988, 261.090804)"><g><path d="M 16.5625 -1.417969 C 15.898438 -1.417969 15.234375 -1.417969 14.621094 -1.46875 C 14.667969 -2.035156 14.714844 -2.648438 14.714844 -3.265625 C 14.714844 -8.421875 11.875 -12.871094 7.710938 -15.851562 C 8.566406 -17.128906 9.464844 -18.359375 10.269531 -19.257812 L 9.984375 -19.496094 C 6.292969 -14.714844 2.839844 -9.226562 2.839844 -5.394531 C 2.839844 -1.65625 6.625 -0.238281 10.457031 0.1875 C 11.59375 0.332031 12.492188 0.378906 13.296875 0.425781 C 11.402344 6.152344 6.8125 8.753906 4.496094 8.753906 C 2.367188 8.753906 0.851562 7.902344 -1.941406 6.339844 L -2.128906 6.71875 L 5.203125 10.882812 C 9.226562 9.792969 13.058594 5.914062 14.289062 0.472656 L 16.5625 0.472656 C 16.84375 0.472656 16.941406 0.285156 16.941406 0.046875 L 16.941406 -1.039062 C 16.941406 -1.230469 16.84375 -1.417969 16.5625 -1.417969 Z M 3.691406 -6.910156 C 3.691406 -8.707031 5.015625 -11.59375 6.671875 -14.289062 C 11.261719 -11.214844 13.769531 -6.625 13.769531 -1.371094 L 13.769531 -1.324219 C 6.386719 -1.941406 3.691406 -3.597656 3.691406 -6.910156 Z M 3.691406 -6.910156 "/></g></g></g><g fill="#e7d49e" fill-opacity="1"><g transform="translate(242.958389, 261.090804)"><g><path d="M 20.0625 -6.199219 C 13.484375 -7.523438 12.300781 -14.527344 6.007812 -15.140625 C 4.210938 -13.484375 2.886719 -12.066406 0.851562 -9.9375 L 1.136719 -9.652344 C 3.546875 -12.066406 4.589844 -12.917969 6.007812 -12.917969 C 9.605469 -12.917969 11.5 -8.1875 16.277344 -5.488281 C 9.464844 -3.925781 9.464844 -1.417969 -0.046875 -1.417969 C -0.285156 -1.417969 -0.472656 -1.277344 -0.472656 -1.039062 L -0.472656 0.046875 C -0.472656 0.238281 -0.378906 0.472656 -0.046875 0.472656 C 9.273438 0.472656 7.710938 -3.121094 16.890625 -5.15625 C 17.507812 -4.828125 18.121094 -4.589844 18.832031 -4.351562 C 19.351562 -5.253906 19.496094 -5.488281 20.0625 -6.199219 Z M 9.699219 2.414062 L 9.558594 2.460938 C 9.039062 3.3125 8.613281 4.117188 8.089844 4.921875 C 8.992188 5.441406 9.652344 5.867188 10.695312 6.625 C 11.449219 5.488281 11.972656 4.683594 11.972656 4.304688 C 11.972656 3.691406 11.449219 3.359375 9.699219 2.414062 Z M 9.699219 2.414062 "/></g></g></g></svg>